<svg width="132" height="42" viewBox="0 0 132 42" fill="none" xmlns="http://www.w3.org/2000/svg">
<rect width="42" height="42" rx="21" fill="#FF3838"/>
<path d="M10.1117 27H12.2211V20.877C12.2211 19.3438 13.0609 18.4551 14.4184 18.4551C14.8285 18.4551 15.1996 18.5039 15.3656 18.5723V16.6094C15.1996 16.5801 14.9359 16.5312 14.6332 16.5312C13.4613 16.5312 12.602 17.2832 12.2699 18.4844H12.2211V16.7266H10.1117V27ZM17.4742 27H19.5836V20.6523C19.5836 19.3242 20.4723 18.3379 21.7223 18.3379C22.9137 18.3379 23.6656 19.0996 23.6656 20.291V27H25.7359V20.5742C25.7359 19.2754 26.6051 18.3379 27.8551 18.3379C29.1051 18.3379 29.818 19.1094 29.818 20.4473V27H31.9371V19.9395C31.9371 17.8789 30.609 16.5312 28.5777 16.5312C27.1129 16.5312 25.902 17.3027 25.3746 18.5527H25.3258C24.9156 17.2637 23.8805 16.5312 22.4645 16.5312C21.1168 16.5312 20.0719 17.2441 19.6324 18.3184H19.5836V16.7266H17.4742V27Z" fill="white"/>
<path d="M53.4188 28H55.6063V22.5898H58.6141L61.4852 28H64.0047L60.8504 22.2578C62.5398 21.6816 63.5848 20.1582 63.5848 18.2441V18.2246C63.5848 15.5781 61.7684 13.9082 58.8875 13.9082H53.4188V28ZM55.6063 20.793V15.7441H58.6141C60.2938 15.7441 61.3289 16.6816 61.3289 18.2441V18.2637C61.3289 19.8652 60.3621 20.793 58.6727 20.793H55.6063ZM70.5957 28.2051C73.0859 28.2051 74.668 26.7207 75 25.0898L75.0195 24.9824H73.0176L72.9883 25.0605C72.7246 25.832 71.8945 26.4766 70.6445 26.4766C68.9648 26.4766 67.9004 25.3438 67.8613 23.4004H75.1367V22.6875C75.1367 19.6016 73.3691 17.5312 70.4883 17.5312C67.6074 17.5312 65.752 19.6797 65.752 22.8926V22.9023C65.752 26.1445 67.5781 28.2051 70.5957 28.2051ZM70.498 19.2598C71.875 19.2598 72.8711 20.1289 73.0469 21.9062H67.8906C68.0762 20.1875 69.1309 19.2598 70.498 19.2598ZM80.5949 28.1855C81.9523 28.1855 83.1438 27.4824 83.7395 26.3789H83.7785V28H85.8977V20.9199C85.8977 18.8594 84.3059 17.5312 81.7961 17.5312C79.2668 17.5312 77.7336 18.8887 77.5871 20.6562L77.5773 20.7637H79.5695L79.5891 20.6758C79.7648 19.8555 80.5168 19.2793 81.7375 19.2793C83.0461 19.2793 83.7785 19.9629 83.7785 21.0957V21.8672L80.9855 22.0332C78.5539 22.1797 77.1672 23.2734 77.1672 25.0605V25.0801C77.1672 26.9258 78.5441 28.1855 80.5949 28.1855ZM79.2961 25.0312V25.0117C79.2961 24.1426 79.9992 23.5859 81.2688 23.5078L83.7785 23.3516V24.1523C83.7785 25.4902 82.6555 26.4961 81.1711 26.4961C80.0383 26.4961 79.2961 25.9297 79.2961 25.0312ZM92.5863 28.2051C94.0609 28.2051 95.1938 27.4629 95.809 26.2617H95.848V28H97.9672V13.9082H95.848V19.4746H95.809C95.1938 18.2637 94.0219 17.5312 92.5668 17.5312C89.9887 17.5312 88.2895 19.582 88.2895 22.8535V22.8633C88.2895 26.1348 89.9691 28.2051 92.5863 28.2051ZM93.143 26.3887C91.473 26.3887 90.4477 25.0508 90.4477 22.8633V22.8535C90.4477 20.6855 91.4828 19.3379 93.143 19.3379C94.725 19.3379 95.8578 20.7246 95.8578 22.8535V22.8633C95.8578 25.002 94.7348 26.3887 93.143 26.3887ZM100.935 28H103.045V21.6523C103.045 20.3242 103.933 19.3379 105.183 19.3379C106.375 19.3379 107.127 20.0996 107.127 21.291V28H109.197V21.5742C109.197 20.2754 110.066 19.3379 111.316 19.3379C112.566 19.3379 113.279 20.1094 113.279 21.4473V28H115.398V20.9395C115.398 18.8789 114.07 17.5312 112.039 17.5312C110.574 17.5312 109.363 18.3027 108.836 19.5527H108.787C108.377 18.2637 107.341 17.5312 105.925 17.5312C104.578 17.5312 103.533 18.2441 103.093 19.3184H103.045V17.7266H100.935V28ZM119.382 16.1445C120.075 16.1445 120.612 15.5977 120.612 14.9336C120.612 14.2598 120.075 13.7129 119.382 13.7129C118.698 13.7129 118.151 14.2598 118.151 14.9336C118.151 15.5977 118.698 16.1445 119.382 16.1445ZM118.327 28H120.436V17.7266H118.327V28ZM123.492 28H125.602V13.9082H123.492V28ZM128.648 28H130.757V13.9082H128.648V28Z" fill="#111827"/>
</svg>
