<svg width="28" height="28" viewBox="0 0 28 28" fill="none" xmlns="http://www.w3.org/2000/svg">
<path d="M11.084 19.2053L10 23L8.916 19.2053C8.63583 18.2251 8.11053 17.3325 7.38968 16.6117C6.66882 15.8908 5.77619 15.3655 4.796 15.0853L1 14L4.79467 12.916C5.77485 12.6358 6.66749 12.1105 7.38835 11.3897C8.1092 10.6688 8.6345 9.77619 8.91467 8.796L10 5L11.084 8.79467C11.3642 9.77485 11.8895 10.6675 12.6103 11.3883C13.3312 12.1092 14.2238 12.6345 15.204 12.9147L19 14L15.2053 15.084C14.2251 15.3642 13.3325 15.8895 12.6117 16.6103C11.8908 17.3312 11.3655 18.2238 11.0853 19.204L11.084 19.2053ZM22.3453 9.62L22 11L21.6547 9.62C21.457 8.82879 21.048 8.10616 20.4715 7.52937C19.8949 6.95259 19.1725 6.54332 18.3813 6.34533L17 6L18.3813 5.65467C19.1725 5.45668 19.8949 5.04741 20.4715 4.47063C21.048 3.89384 21.457 3.17122 21.6547 2.38L22 1L22.3453 2.38C22.5431 3.17138 22.9523 3.89412 23.5291 4.47092C24.1059 5.04772 24.8286 5.45689 25.62 5.65467L27 6L25.62 6.34533C24.8286 6.54311 24.1059 6.95228 23.5291 7.52908C22.9523 8.10588 22.5431 8.82862 22.3453 9.62ZM20.5253 25.4227L20 27L19.4747 25.4227C19.3274 24.9808 19.0793 24.5794 18.7499 24.2501C18.4206 23.9207 18.0192 23.6726 17.5773 23.5253L16 23L17.5773 22.4747C18.0192 22.3274 18.4206 22.0793 18.7499 21.7499C19.0793 21.4206 19.3274 21.0192 19.4747 20.5773L20 19L20.5253 20.5773C20.6726 21.0192 20.9207 21.4206 21.2501 21.7499C21.5794 22.0793 21.9808 22.3274 22.4227 22.4747L24 23L22.4227 23.5253C21.9808 23.6726 21.5794 23.9207 21.2501 24.2501C20.9207 24.5794 20.6726 24.9808 20.5253 25.4227Z" stroke="#9298A5" stroke-width="2" stroke-linecap="round" stroke-linejoin="round"/>
</svg>
